<svg id="Capa_3" data-name="Capa 3" xmlns="http://www.w3.org/2000/svg" viewBox="0 0 17.52 17.52"><defs><style>.cls-1{fill:#666;}</style></defs><title>cerrar</title><path class="cls-1" d="M281.28-154a.39.39,0,0,1,0-.56l6-6a.86.86,0,0,0,.24-.56.86.86,0,0,0-.24-.56l-1.12-1.12a.86.86,0,0,0-.56-.24.73.73,0,0,0-.56.24l-6,6a.39.39,0,0,1-.56,0l-6-6a.86.86,0,0,0-.56-.24.86.86,0,0,0-.56.24l-1.12,1.12a.86.86,0,0,0-.24.56.86.86,0,0,0,.24.56l6,6a.39.39,0,0,1,0,.56l-6,6a.86.86,0,0,0-.24.56.86.86,0,0,0,.24.56l1.12,1.12a.86.86,0,0,0,.56.24.86.86,0,0,0,.56-.24l6-6a.39.39,0,0,1,.56,0l6,6a.86.86,0,0,0,.56.24.86.86,0,0,0,.56-.24l1.12-1.12a.86.86,0,0,0,.24-.56.86.86,0,0,0-.24-.56Zm0,0" transform="translate(-270 163)"/></svg>