<svg id="Capa_3" data-name="Capa 3" xmlns="http://www.w3.org/2000/svg" viewBox="0 0 345.38 332.09"><defs><style>.cls-1{fill:#666;}</style></defs><title>regresar</title><path class="cls-1" d="M362-374a166.94,166.94,0,0,0-131,64l-33.49-19.37a9.57,9.57,0,0,0-14.35,8.27L183-195.2a9.12,9.12,0,0,0,13.68,7.91l109.08-62.89a9.56,9.56,0,0,0,0-16.56L276-283.95A115.54,115.54,0,0,1,362-322.8,115.34,115.34,0,0,1,477.19-207.6a115.38,115.38,0,0,1-102,114.45A14.86,14.86,0,0,0,362-78.39v21.6A14.85,14.85,0,0,0,378.2-42c84.18-8.19,150.19-79.34,150.19-165.62C528.39-299.35,453.74-374,362-374Zm0,0" transform="translate(-183.01 374)"/></svg>